<svg width="960.0px" height="416.0px" xmlns="http://www.w3.org/2000/svg" version="1.1">

<path d="M 0.0 0.0 L 960.0 0.0 L 960.0 416.0 L 0.0 416.0 L 0.0 0.0 Z" fill="#ffffff" stroke="none" stroke-width="1.0" />
<path d="M 20.0 52.0 L 238.33333 52.0 M 20.0 60.0 L 238.33333 60.0 M 20.0 68.0 L 238.33333 68.0 M 20.0 76.0 L 238.33333 76.0 M 20.0 84.0 L 238.33333 84.0 Z" fill="none" stroke="#d6d6d6" stroke-width="0.75" />
<path d="M 20.0 137.0 L 238.33333 137.0 M 20.0 147.0 L 238.33333 147.0 M 20.0 157.0 L 238.33333 157.0 M 20.0 167.0 L 238.33333 167.0 M 20.0 177.0 L 238.33333 177.0 M 20.0 187.0 L 238.33333 187.0 Z" fill="none" stroke="#d6d6d6" stroke-width="0.75" />
<text x='86.0' y='63.5' font-family="Default" font-size="14.0" fill="#000000" >4</text>
<text x='86.0' y='83.0' font-family="Default" font-size="14.0" fill="#000000" >4</text>
<path d="M 41.764973 44.115383 C 41.921913 44.03691 41.948074 44.03691 42.105015 44.03691 C 42.31427 44.063072 42.445057 44.14154 42.73278 44.455425 C 44.61608 46.39104 46.1855 49.843758 46.577858 52.773342 C 46.63017 53.244167 46.63017 54.34276 46.577858 54.839737 C 46.29013 57.533905 45.165375 59.99266 42.57584 63.52385 L 42.209644 64.02083 L 42.4189 64.62244 C 42.915882 66.06107 43.491333 67.81359 43.85753 69.09528 C 43.96216 69.409164 44.04063 69.67074 44.04063 69.6969 C 44.04063 69.6969 44.22373 69.6969 44.406826 69.72305 C 45.32232 69.80152 46.107033 70.01078 46.917896 70.40313 C 47.57182 70.74317 48.147274 71.13552 48.696568 71.65866 C 49.29818 72.26028 49.690536 72.80957 50.056732 73.56812 C 50.606026 74.66672 50.84144 75.81762 50.81528 76.96853 C 50.789124 77.70093 50.684494 78.25022 50.449085 78.930305 C 50.1352 79.92426 49.559746 80.83976 48.77504 81.624466 C 48.094955 82.30455 47.46719 82.72306 46.63017 83.0631 L 46.316284 83.193886 L 46.316284 84.13554 C 46.316284 85.46954 46.237816 87.038956 46.133186 87.980606 C 46.02856 88.94841 45.76699 89.86391 45.348476 90.700935 C 44.249886 92.92427 42.31427 94.10133 40.14324 93.89209 C 37.684486 93.65667 35.69656 91.98262 35.199577 89.73312 C 34.96416 88.713 35.068794 87.9283 35.4873 87.27437 C 36.0366 86.411194 37.08288 85.914215 38.102997 85.94037 C 39.306217 85.99268 40.274025 86.934326 40.457123 88.24218 C 40.58791 89.28845 40.14324 90.25626 39.306217 90.7794 C 38.835392 91.06713 38.18147 91.197914 37.684486 91.119446 C 37.606018 91.119446 37.527542 91.093285 37.527542 91.119446 L 37.84143 91.43333 C 38.41688 92.00878 39.070805 92.374985 39.90783 92.558075 C 40.090927 92.584236 40.247868 92.584236 40.66638 92.584236 C 41.137207 92.584236 41.189518 92.584236 41.451088 92.53192 C 41.81729 92.42729 42.131172 92.29651 42.4189 92.139565 C 43.726746 91.35486 44.61608 89.73312 44.851494 87.77136 C 44.929962 87.038956 45.008434 85.46954 45.008434 84.318634 C 45.008434 83.56009 45.008434 83.50777 44.956123 83.50777 C 44.851494 83.56009 44.302197 83.6124 43.909843 83.63855 C 43.41286 83.66471 42.57584 83.66471 42.183487 83.6124 C 40.64022 83.4293 39.22775 82.90616 37.99837 82.04298 C 36.167385 80.76129 34.859535 78.85182 34.310238 76.65465 C 33.604004 73.908165 34.100986 70.978584 35.827343 67.89206 C 36.55974 66.610374 37.265976 65.564095 39.018494 63.236122 L 40.012455 61.902122 L 39.829357 61.405136 C 38.573822 58.083202 38.15531 56.173744 38.02453 53.401108 C 37.972214 52.197887 38.02453 51.17776 38.18147 50.34074 C 38.573822 48.14356 39.593945 46.181786 41.189518 44.612366 C 41.503403 44.298485 41.63419 44.193855 41.764973 44.115383 M 43.83137 48.588226 C 43.569805 48.14356 43.622116 48.169712 43.386707 48.32666 C 42.654312 48.771324 41.89576 49.451405 41.34646 50.131485 C 40.221714 51.57012 39.593945 53.244167 39.515476 55.048996 C 39.48932 55.78139 39.567787 56.252216 39.90783 57.37696 C 40.169395 58.292458 40.901794 60.5158 40.95411 60.56811 C 40.95411 60.59427 41.111046 60.411175 41.26799 60.17576 C 43.072823 57.58622 44.04063 55.467506 44.406826 53.348793 C 44.4853 52.799496 44.53761 52.354828 44.563766 51.727062 C 44.589928 50.28843 44.432983 49.58219 43.83137 48.588226 M 41.58188 66.191864 C 41.424934 65.69488 41.26799 65.30252 41.26799 65.30252 C 41.241837 65.30252 40.14324 66.76731 39.672413 67.421234 C 38.129158 69.59227 37.187508 71.34478 36.638206 73.07114 C 36.27201 74.14357 36.11507 75.13754 36.062756 76.23613 C 36.062756 76.837746 36.088913 77.20394 36.19354 77.648605 C 36.79515 79.97658 39.280064 81.88603 42.209644 82.30455 C 42.654312 82.35686 43.909843 82.35686 44.459137 82.30455 C 45.008434 82.226074 44.956123 82.252235 44.929962 82.01682 C 44.773026 79.531906 44.563766 78.0148 44.14526 75.765305 C 43.98831 74.823654 43.543648 72.835724 43.517487 72.80957 C 43.491333 72.78342 42.99435 72.835724 42.706627 72.9142 C 42.340427 72.99267 42.105015 73.07114 41.79113 73.22808 C 40.090927 74.09126 39.593945 76.05304 40.66638 77.648605 C 40.84948 77.91018 41.320305 78.381004 41.608032 78.5641 C 41.71266 78.64258 41.948074 78.799515 42.105015 78.87799 C 42.340427 79.00877 42.39274 79.06108 42.445057 79.16571 C 42.654312 79.50575 42.523525 79.92426 42.131172 80.10736 C 41.921913 80.21199 41.764973 80.18584 41.34646 79.97658 C 40.326344 79.4796 39.567787 78.799515 39.018494 77.962494 C 37.99837 76.393074 37.867584 74.37899 38.70461 72.67879 C 39.437004 71.214 40.74485 70.22003 42.4189 69.853836 C 42.57584 69.80152 42.706627 69.77537 42.706627 69.77537 C 42.73278 69.74921 42.000385 67.36893 41.58188 66.191864 M 45.13922 72.94036 C 45.060753 72.94036 44.98228 72.9142 44.956123 72.9142 L 44.87765 72.88804 L 45.008434 73.43734 C 45.610046 76.07919 46.054714 78.95645 46.211655 81.38905 C 46.237816 81.65063 46.237816 81.85988 46.237816 81.85988 C 46.263973 81.85988 46.60401 81.70294 46.78711 81.57216 C 47.231777 81.31058 47.65029 80.91823 47.99033 80.47356 C 48.801197 79.40112 49.08892 78.06712 48.77504 76.706955 C 48.539627 75.60837 47.91186 74.58824 47.022522 73.882 C 46.47323 73.46349 45.74083 73.0973 45.13922 72.94036 Z" fill="#000000" stroke="none" stroke-width="0.75" />
<path d="M 73.46439 45.63119 C 73.59136 45.55864 73.79088 45.613052 73.863434 45.7763 C 73.89971 45.84885 73.89971 45.903263 73.89971 47.172935 C 73.89971 47.916603 73.89971 48.515163 73.91785 48.515163 C 73.91785 48.515163 74.08109 48.442608 74.28061 48.370056 C 74.69779 48.206814 74.752205 48.188675 74.86103 48.279366 C 74.988 48.370056 74.988 48.388195 74.988 49.113724 C 74.988 49.73042 74.988 49.784836 74.95172 49.83925 C 74.933586 49.875526 74.89731 49.911804 74.87917 49.92994 C 74.842896 49.94808 74.62524 50.056908 74.3713 50.1476 L 73.91785 50.34712 L 73.89971 51.81631 C 73.89971 52.61439 73.89971 53.285503 73.91785 53.285503 C 73.91785 53.285503 74.08109 53.21295 74.28061 53.1404 C 74.69779 52.977154 74.752205 52.95902 74.86103 53.04971 C 74.988 53.1404 74.988 53.15854 74.988 53.884064 C 74.988 54.500763 74.988 54.555176 74.95172 54.609592 C 74.933586 54.64587 74.89731 54.682144 74.87917 54.700283 C 74.842896 54.718422 74.62524 54.82725 74.3713 54.917942 L 73.91785 55.117462 L 73.89971 56.641068 C 73.89971 58.01957 73.88157 58.18281 73.863434 58.23723 C 73.736465 58.454887 73.428116 58.454887 73.30115 58.23723 C 73.28301 58.18281 73.26487 58.03771 73.26487 56.768036 L 73.26487 55.371395 L 72.48493 55.679745 L 71.72313 55.988094 L 71.72313 57.457287 C 71.72313 59.01717 71.72313 58.980892 71.63244 59.071587 C 71.59616 59.126 71.46919 59.180412 71.41478 59.180412 C 71.342224 59.180412 71.215256 59.126 71.178986 59.071587 C 71.08829 58.980892 71.08829 59.01717 71.08829 57.60239 C 71.08829 56.858727 71.08829 56.260166 71.07015 56.260166 C 71.07015 56.260166 70.906906 56.332718 70.70739 56.405273 C 70.290215 56.568516 70.235794 56.586655 70.12697 56.495964 C 70.0 56.405273 70.0 56.387135 70.0 55.661606 C 70.0 55.044907 70.0 54.990494 70.03628 54.936077 C 70.05441 54.899803 70.09069 54.863525 70.108826 54.845387 C 70.1451 54.82725 70.36276 54.718422 70.6167 54.62773 L 71.08829 54.42821 L 71.08829 52.95902 C 71.08829 52.16094 71.08829 51.489826 71.07015 51.489826 C 71.07015 51.489826 70.906906 51.562378 70.70739 51.63493 C 70.290215 51.798172 70.235794 51.81631 70.12697 51.72562 C 70.0 51.63493 70.0 51.61679 70.0 50.891266 C 70.0 50.274567 70.0 50.22015 70.03628 50.165737 C 70.05441 50.12946 70.09069 50.093185 70.108826 50.075047 C 70.1451 50.056908 70.36276 49.94808 70.6167 49.857388 L 71.08829 49.657867 L 71.08829 48.134262 C 71.08829 46.75576 71.10643 46.592514 71.124565 46.5381 C 71.25153 46.320442 71.55988 46.320442 71.68685 46.5381 C 71.70499 46.592514 71.72313 46.73762 71.72313 48.007294 L 71.741264 49.403934 L 72.50307 49.095585 L 73.26487 48.787235 L 73.26487 47.318043 C 73.26487 45.93954 73.26487 45.84885 73.30115 45.7763 C 73.337425 45.703743 73.3737 45.667465 73.46439 45.63119 M 73.26487 52.070248 L 73.26487 50.601055 L 72.48493 50.9094 L 71.72313 51.21775 L 71.72313 52.705082 L 71.72313 54.174274 L 71.77754 54.156136 C 71.81382 54.138 72.15845 53.992893 72.55749 53.84779 L 73.26487 53.55758 L 73.26487 52.070248 Z" fill="#000000" stroke="none" stroke-width="0.75" />
<path d="M 120.52 49.232 C 120.52 50.456 121.715195 51.68 122.895996 51.68 C 126.495995 51.68 130.096 49.232 130.096 46.856 C 130.096 45.6752 128.872 44.48 127.71999 44.48 C 124.119995 44.48 120.52 46.856 120.52 49.232 Z" fill="#404040" stroke="none" stroke-width="1.0" />
<text x='119.0' y='140.75' font-family="Default" font-size="10.0" fill="#404040" >3</text>
<path d="M 120.5 48.96 L 121.5 48.96 L 121.5 79.0 L 120.5 79.0 M 120.5 48.96 Z" fill="#404040" stroke="none" stroke-width="0.75" />
<path d="M 146.10333 49.232 C 146.10333 50.456 147.29854 51.68 148.47934 51.68 C 152.07933 51.68 155.67934 49.232 155.67934 46.856 C 155.67934 45.6752 154.45534 44.48 153.30333 44.48 C 149.70334 44.48 146.10333 46.856 146.10333 49.232 Z" fill="#404040" stroke="none" stroke-width="1.0" />
<text x='144.58333' y='140.75' font-family="Default" font-size="10.0" fill="#404040" >3</text>
<path d="M 146.08333 48.96 L 147.08333 48.96 L 147.08333 79.0 L 146.08333 79.0 M 146.08333 48.96 Z" fill="#404040" stroke="none" stroke-width="0.75" />
<path d="M 171.68668 53.232 C 171.68668 54.456 172.88188 55.68 174.06268 55.68 C 177.66267 55.68 181.26268 53.232 181.26268 50.856 C 181.26268 49.6752 180.03868 48.48 178.88667 48.48 C 175.28668 48.48 171.68668 50.856 171.68668 53.232 Z" fill="#404040" stroke="none" stroke-width="1.0" />
<text x='170.16667' y='140.75' font-family="Default" font-size="10.0" fill="#404040" >2</text>
<path d="M 171.66667 52.96 L 172.66667 52.96 L 172.66667 83.0 L 171.66667 83.0 M 171.66667 52.96 Z" fill="#404040" stroke="none" stroke-width="0.75" />
<path d="M 197.27 49.232 C 197.27 50.456 198.46521 51.68 199.64601 51.68 C 203.246 51.68 206.84601 49.232 206.84601 46.856 C 206.84601 45.6752 205.62201 44.48 204.47 44.48 C 200.87001 44.48 197.27 46.856 197.27 49.232 Z" fill="#404040" stroke="none" stroke-width="1.0" />
<text x='195.75' y='140.75' font-family="Default" font-size="10.0" fill="#404040" >3</text>
<path d="M 197.25 48.96 L 198.25 48.96 L 198.25 79.0 L 197.25 79.0 M 197.25 48.96 Z" fill="#404040" stroke="none" stroke-width="0.75" />
<path d="M 35.35 38.3 C 35.35 39.15 36.18 40.0 37.0 40.0 C 39.5 40.0 42.0 38.3 42.0 36.65 C 42.0 35.83 41.149998 35.0 40.35 35.0 C 37.85 35.0 35.35 36.65 35.35 38.3 Z" fill="#000000" stroke="none" stroke-width="0.75" />
<path d="M 42.0 22.0 L 42.0 36.7 Z" fill="none" stroke="#000000" stroke-width="0.75" />
<text x='43.0' y='38.25' font-family="Default" font-size="10.0" fill="#000000" > = 120</text>
<text x='21.0' y='50.0' font-family="Default" font-size="10.0" fill="#ff0000" >1</text>
<path d="M 20.0 52.0 L 23.0 52.0 L 23.0 137.0 L 20.0 137.0 L 20.0 52.0 Z" fill="#000000" stroke="#000000" stroke-width="0.75" />
<path d="M 25.0 52.0 L 26.0 52.0 L 26.0 137.0 L 25.0 137.0 L 25.0 52.0 Z" fill="#000000" stroke="#000000" stroke-width="0.75" />
<path d="M 238.33333 52.0 L 238.33333 84.0 Z" fill="#000000" stroke="#000000" stroke-width="0.75" />
<path d="M 20.0 137.0 L 23.0 137.0 L 23.0 187.0 L 20.0 187.0 L 20.0 137.0 Z" fill="#000000" stroke="#000000" stroke-width="0.75" />
<path d="M 25.0 137.0 L 26.0 137.0 L 26.0 187.0 L 25.0 187.0 L 25.0 137.0 Z" fill="#000000" stroke="#000000" stroke-width="0.75" />
<path d="M 238.33333 137.0 L 238.33333 187.0 Z" fill="#000000" stroke="#000000" stroke-width="0.75" />
<path d="M 238.33333 52.0 L 380.6667 52.0 M 238.33333 60.0 L 380.6667 60.0 M 238.33333 68.0 L 380.6667 68.0 M 238.33333 76.0 L 380.6667 76.0 M 238.33333 84.0 L 380.6667 84.0 Z" fill="none" stroke="#d6d6d6" stroke-width="0.75" />
<path d="M 238.33333 137.0 L 380.6667 137.0 M 238.33333 147.0 L 380.6667 147.0 M 238.33333 157.0 L 380.6667 157.0 M 238.33333 167.0 L 380.6667 167.0 M 238.33333 177.0 L 380.6667 177.0 M 238.33333 187.0 L 380.6667 187.0 Z" fill="none" stroke="#d6d6d6" stroke-width="0.75" />
<path d="M 262.8533 61.232 C 262.8533 62.456 264.0485 63.68 265.2293 63.68 C 268.8293 63.68 272.4293 61.232 272.4293 58.856 C 272.4293 57.6752 271.2053 56.48 270.0533 56.48 C 266.4533 56.48 262.8533 58.856 262.8533 61.232 Z" fill="#404040" stroke="none" stroke-width="1.0" />
<text x='261.3333' y='150.75' font-family="Default" font-size="10.0" fill="#404040" >3</text>
<path d="M 262.8333 60.96 L 263.8333 60.96 L 263.8333 91.0 L 262.8333 91.0 M 262.8333 60.96 Z" fill="#404040" stroke="none" stroke-width="0.75" />
<path d="M 288.43665 49.232 C 288.43665 50.456 289.63184 51.68 290.81265 51.68 C 294.41266 51.68 298.01263 49.232 298.01263 46.856 C 298.01263 45.6752 296.78864 44.48 295.63666 44.48 C 292.03665 44.48 288.43665 46.856 288.43665 49.232 Z" fill="#404040" stroke="none" stroke-width="1.0" />
<text x='286.91666' y='140.75' font-family="Default" font-size="10.0" fill="#404040" >3</text>
<path d="M 288.41666 48.96 L 289.41666 48.96 L 289.41666 79.0 L 288.41666 79.0 M 288.41666 48.96 Z" fill="#404040" stroke="none" stroke-width="0.75" />
<path d="M 314.02 69.232 C 314.02 70.456 315.21518 71.68 316.396 71.68 C 319.996 71.68 323.59598 69.232 323.59598 66.856 C 323.59598 65.6752 322.37198 64.48 321.22 64.48 C 317.62 64.48 314.02 66.856 314.02 69.232 Z" fill="#404040" stroke="none" stroke-width="1.0" />
<text x='312.5' y='160.75' font-family="Default" font-size="10.0" fill="#404040" >4</text>
<path d="M 314.0 68.96 L 315.0 68.96 L 315.0 99.0 L 314.0 99.0 M 314.0 68.96 Z" fill="#404040" stroke="none" stroke-width="0.75" />
<path d="M 339.6033 49.232 C 339.6033 50.456 340.7985 51.68 341.9793 51.68 C 345.5793 51.68 349.1793 49.232 349.1793 46.856 C 349.1793 45.6752 347.9553 44.48 346.8033 44.48 C 343.2033 44.48 339.6033 46.856 339.6033 49.232 Z" fill="#404040" stroke="none" stroke-width="1.0" />
<text x='338.0833' y='140.75' font-family="Default" font-size="10.0" fill="#404040" >3</text>
<path d="M 339.5833 48.96 L 340.5833 48.96 L 340.5833 79.0 L 339.5833 79.0 M 339.5833 48.96 Z" fill="#404040" stroke="none" stroke-width="0.75" />
<text x='239.33333' y='50.0' font-family="Default" font-size="10.0" fill="#ff0000" >2</text>
<path d="M 238.33333 52.0 L 238.33333 84.0 Z" fill="#000000" stroke="#000000" stroke-width="0.75" />
<path d="M 380.66666 52.0 L 380.66666 84.0 Z" fill="#000000" stroke="#000000" stroke-width="0.75" />
<path d="M 238.33333 137.0 L 238.33333 187.0 Z" fill="#000000" stroke="#000000" stroke-width="0.75" />
<path d="M 380.66666 137.0 L 380.66666 187.0 Z" fill="#000000" stroke="#000000" stroke-width="0.75" />
<path d="M 380.6667 52.0 L 523.0 52.0 M 380.6667 60.0 L 523.0 60.0 M 380.6667 68.0 L 523.0 68.0 M 380.6667 76.0 L 523.0 76.0 M 380.6667 84.0 L 523.0 84.0 Z" fill="none" stroke="#d6d6d6" stroke-width="0.75" />
<path d="M 380.6667 137.0 L 523.0 137.0 M 380.6667 147.0 L 523.0 147.0 M 380.6667 157.0 L 523.0 157.0 M 380.6667 167.0 L 523.0 167.0 M 380.6667 177.0 L 523.0 177.0 M 380.6667 187.0 L 523.0 187.0 Z" fill="none" stroke="#d6d6d6" stroke-width="0.75" />
<path d="M 405.18668 77.232 C 405.18668 78.456 406.38187 79.68 407.56268 79.68 C 411.1627 79.68 414.76266 77.232 414.76266 74.856 C 414.76266 73.6752 413.53867 72.48 412.3867 72.48 C 408.78668 72.48 405.18668 74.856 405.18668 77.232 Z" fill="#404040" stroke="none" stroke-width="1.0" />
<text x='403.6667' y='160.75' font-family="Default" font-size="10.0" fill="#404040" >0</text>
<path d="M 405.1667 76.96 L 406.1667 76.96 L 406.1667 107.0 L 405.1667 107.0 M 405.1667 76.96 Z" fill="#404040" stroke="none" stroke-width="0.75" />
<path d="M 430.77002 49.232 C 430.77002 50.456 431.9652 51.68 433.14603 51.68 C 436.74603 51.68 440.346 49.232 440.346 46.856 C 440.346 45.6752 439.122 44.48 437.97003 44.48 C 434.37003 44.48 430.77002 46.856 430.77002 49.232 Z" fill="#404040" stroke="none" stroke-width="1.0" />
<text x='429.25003' y='140.75' font-family="Default" font-size="10.0" fill="#404040" >3</text>
<path d="M 430.75003 48.96 L 431.75003 48.96 L 431.75003 79.0 L 430.75003 79.0 M 430.75003 48.96 Z" fill="#404040" stroke="none" stroke-width="0.75" />
<path d="M 452.83334 44.0 L 468.83334 44.0 Z" fill="none" stroke="#d6d6d6" stroke-width="0.75" />
<path d="M 452.83334 44.0 L 468.83334 44.0 Z" fill="none" stroke="#d6d6d6" stroke-width="0.75" />
<path d="M 456.35333 45.232 C 456.35333 46.456 457.54852 47.68 458.72934 47.68 C 462.32935 47.68 465.92932 45.232 465.92932 42.856 C 465.92932 41.6752 464.70532 40.48 463.55334 40.48 C 459.95334 40.48 456.35333 42.856 456.35333 45.232 Z" fill="#404040" stroke="none" stroke-width="1.0" />
<text x='454.83334' y='140.75' font-family="Default" font-size="10.0" fill="#404040" >5</text>
<path d="M 456.33334 44.96 L 457.33334 44.96 L 457.33334 75.0 L 456.33334 75.0 M 456.33334 44.96 Z" fill="#404040" stroke="none" stroke-width="0.75" />
<path d="M 478.4167 44.0 L 494.4167 44.0 Z" fill="none" stroke="#d6d6d6" stroke-width="0.75" />
<path d="M 478.4167 44.0 L 494.4167 44.0 Z" fill="none" stroke="#d6d6d6" stroke-width="0.75" />
<path d="M 481.93668 45.232 C 481.93668 46.456 483.13187 47.68 484.31268 47.68 C 487.9127 47.68 491.51266 45.232 491.51266 42.856 C 491.51266 41.6752 490.28867 40.48 489.1367 40.48 C 485.53668 40.48 481.93668 42.856 481.93668 45.232 Z" fill="#404040" stroke="none" stroke-width="1.0" />
<text x='480.4167' y='140.75' font-family="Default" font-size="10.0" fill="#404040" >5</text>
<path d="M 481.9167 44.96 L 482.9167 44.96 L 482.9167 75.0 L 481.9167 75.0 M 481.9167 44.96 Z" fill="#404040" stroke="none" stroke-width="0.75" />
<text x='381.6667' y='50.0' font-family="Default" font-size="10.0" fill="#ff0000" >3</text>
<path d="M 380.6667 52.0 L 380.6667 84.0 Z" fill="#000000" stroke="#000000" stroke-width="0.75" />
<path d="M 523.0 52.0 L 523.0 84.0 Z" fill="#000000" stroke="#000000" stroke-width="0.75" />
<path d="M 380.6667 137.0 L 380.6667 187.0 Z" fill="#000000" stroke="#000000" stroke-width="0.75" />
<path d="M 523.0 137.0 L 523.0 187.0 Z" fill="#000000" stroke="#000000" stroke-width="0.75" />
<path d="M 523.0 52.0 L 665.3334 52.0 M 523.0 60.0 L 665.3334 60.0 M 523.0 68.0 L 665.3334 68.0 M 523.0 76.0 L 665.3334 76.0 M 523.0 84.0 L 665.3334 84.0 Z" fill="none" stroke="#d6d6d6" stroke-width="0.75" />
<path d="M 523.0 137.0 L 665.3334 137.0 M 523.0 147.0 L 665.3334 147.0 M 523.0 157.0 L 665.3334 157.0 M 523.0 167.0 L 665.3334 167.0 M 523.0 177.0 L 665.3334 177.0 M 523.0 187.0 L 665.3334 187.0 Z" fill="none" stroke="#d6d6d6" stroke-width="0.75" />
<path d="M 547.52 49.232 C 547.52 50.456 548.7152 51.68 549.896 51.68 C 553.49603 51.68 557.096 49.232 557.096 46.856 C 557.096 45.6752 555.872 44.48 554.72003 44.48 C 551.12 44.48 547.52 46.856 547.52 49.232 Z" fill="#404040" stroke="none" stroke-width="1.0" />
<text x='546.0' y='140.75' font-family="Default" font-size="10.0" fill="#404040" >3</text>
<path d="M 547.5 48.96 L 548.5 48.96 L 548.5 79.0 L 547.5 79.0 M 547.5 48.96 Z" fill="#404040" stroke="none" stroke-width="0.75" />
<path d="M 569.5833 44.0 L 585.5833 44.0 Z" fill="none" stroke="#d6d6d6" stroke-width="0.75" />
<path d="M 569.5833 44.0 L 585.5833 44.0 Z" fill="none" stroke="#d6d6d6" stroke-width="0.75" />
<path d="M 573.10333 45.232 C 573.10333 46.456 574.2985 47.68 575.4793 47.68 C 579.07935 47.68 582.6793 45.232 582.6793 42.856 C 582.6793 41.6752 581.4553 40.48 580.30334 40.48 C 576.7033 40.48 573.10333 42.856 573.10333 45.232 Z" fill="#404040" stroke="none" stroke-width="1.0" />
<text x='571.5833' y='140.75' font-family="Default" font-size="10.0" fill="#404040" >5</text>
<path d="M 573.0833 44.96 L 574.0833 44.96 L 574.0833 75.0 L 573.0833 75.0 M 573.0833 44.96 Z" fill="#404040" stroke="none" stroke-width="0.75" />
<path d="M 598.6867 57.232 C 598.6867 58.456 599.8819 59.68 601.0627 59.68 C 604.6627 59.68 608.2627 57.232 608.2627 54.856 C 608.2627 53.6752 607.0387 52.48 605.8867 52.48 C 602.2867 52.48 598.6867 54.856 598.6867 57.232 Z" fill="#404040" stroke="none" stroke-width="1.0" />
<text x='597.1667' y='150.75' font-family="Default" font-size="10.0" fill="#404040" >5</text>
<path d="M 598.6667 56.96 L 599.6667 56.96 L 599.6667 87.0 L 598.6667 87.0 M 598.6667 56.96 Z" fill="#404040" stroke="none" stroke-width="0.75" />
<path d="M 620.75 44.0 L 636.75 44.0 Z" fill="none" stroke="#d6d6d6" stroke-width="0.75" />
<path d="M 620.75 44.0 L 636.75 44.0 Z" fill="none" stroke="#d6d6d6" stroke-width="0.75" />
<path d="M 624.27 45.232 C 624.27 46.456 625.4652 47.68 626.646 47.68 C 630.24603 47.68 633.846 45.232 633.846 42.856 C 633.846 41.6752 632.622 40.48 631.47003 40.48 C 627.87 40.48 624.27 42.856 624.27 45.232 Z" fill="#404040" stroke="none" stroke-width="1.0" />
<text x='622.75' y='140.75' font-family="Default" font-size="10.0" fill="#404040" >5</text>
<path d="M 624.25 44.96 L 625.25 44.96 L 625.25 75.0 L 624.25 75.0 M 624.25 44.96 Z" fill="#404040" stroke="none" stroke-width="0.75" />
<text x='524.0' y='50.0' font-family="Default" font-size="10.0" fill="#ff0000" >4</text>
<path d="M 523.0 52.0 L 523.0 84.0 Z" fill="#000000" stroke="#000000" stroke-width="0.75" />
<path d="M 665.3334 52.0 L 665.3334 84.0 Z" fill="#000000" stroke="#000000" stroke-width="0.75" />
<path d="M 523.0 137.0 L 523.0 187.0 Z" fill="#000000" stroke="#000000" stroke-width="0.75" />
<path d="M 665.3334 137.0 L 665.3334 187.0 Z" fill="#000000" stroke="#000000" stroke-width="0.75" />
<path d="M 665.3334 52.0 L 807.6667 52.0 M 665.3334 60.0 L 807.6667 60.0 M 665.3334 68.0 L 807.6667 68.0 M 665.3334 76.0 L 807.6667 76.0 M 665.3334 84.0 L 807.6667 84.0 Z" fill="none" stroke="#d6d6d6" stroke-width="0.75" />
<path d="M 665.3334 137.0 L 807.6667 137.0 M 665.3334 147.0 L 807.6667 147.0 M 665.3334 157.0 L 807.6667 157.0 M 665.3334 167.0 L 807.6667 167.0 M 665.3334 177.0 L 807.6667 177.0 M 665.3334 187.0 L 807.6667 187.0 Z" fill="none" stroke="#d6d6d6" stroke-width="0.75" />
<path d="M 689.8534 65.232 C 689.8534 66.456 691.0486 67.68 692.2294 67.68 C 695.8294 67.68 699.4294 65.232 699.4294 62.856 C 699.4294 61.6752 698.2054 60.48 697.0534 60.48 C 693.45337 60.48 689.8534 62.856 689.8534 65.232 Z" fill="#404040" stroke="none" stroke-width="1.0" />
<text x='688.3334' y='160.75' font-family="Default" font-size="10.0" fill="#404040" >5</text>
<path d="M 689.8334 64.96 L 690.8334 64.96 L 690.8334 95.0 L 689.8334 95.0 M 689.8334 64.96 Z" fill="#404040" stroke="none" stroke-width="0.75" />
<path d="M 711.9167 44.0 L 727.9167 44.0 Z" fill="none" stroke="#d6d6d6" stroke-width="0.75" />
<path d="M 711.9167 44.0 L 727.9167 44.0 Z" fill="none" stroke="#d6d6d6" stroke-width="0.75" />
<path d="M 715.4367 45.232 C 715.4367 46.456 716.6319 47.68 717.8127 47.68 C 721.4127 47.68 725.0127 45.232 725.0127 42.856 C 725.0127 41.6752 723.7887 40.48 722.6367 40.48 C 719.0367 40.48 715.4367 42.856 715.4367 45.232 Z" fill="#404040" stroke="none" stroke-width="1.0" />
<text x='713.9167' y='140.75' font-family="Default" font-size="10.0" fill="#404040" >5</text>
<path d="M 715.4167 44.96 L 716.4167 44.96 L 716.4167 75.0 L 715.4167 75.0 M 715.4167 44.96 Z" fill="#404040" stroke="none" stroke-width="0.75" />
<path d="M 741.0201 73.232 C 741.0201 74.456 742.2153 75.68 743.39606 75.68 C 746.9961 75.68 750.59607 73.232 750.59607 70.856 C 750.59607 69.6752 749.3721 68.48 748.2201 68.48 C 744.62006 68.48 741.0201 70.856 741.0201 73.232 Z" fill="#404040" stroke="none" stroke-width="1.0" />
<text x='739.50006' y='160.75' font-family="Default" font-size="10.0" fill="#404040" >2</text>
<path d="M 741.00006 72.96 L 742.00006 72.96 L 742.00006 103.0 L 741.00006 103.0 M 741.00006 72.96 Z" fill="#404040" stroke="none" stroke-width="0.75" />
<path d="M 763.0834 44.0 L 779.0834 44.0 Z" fill="none" stroke="#d6d6d6" stroke-width="0.75" />
<path d="M 763.0834 44.0 L 779.0834 44.0 Z" fill="none" stroke="#d6d6d6" stroke-width="0.75" />
<path d="M 766.6034 45.232 C 766.6034 46.456 767.7986 47.68 768.9794 47.68 C 772.5794 47.68 776.1794 45.232 776.1794 42.856 C 776.1794 41.6752 774.9554 40.48 773.8034 40.48 C 770.20337 40.48 766.6034 42.856 766.6034 45.232 Z" fill="#404040" stroke="none" stroke-width="1.0" />
<text x='765.0834' y='140.75' font-family="Default" font-size="10.0" fill="#404040" >5</text>
<path d="M 766.5834 44.96 L 767.5834 44.96 L 767.5834 75.0 L 766.5834 75.0 M 766.5834 44.96 Z" fill="#404040" stroke="none" stroke-width="0.75" />
<text x='666.3334' y='50.0' font-family="Default" font-size="10.0" fill="#ff0000" >5</text>
<path d="M 665.3334 52.0 L 665.3334 84.0 Z" fill="#000000" stroke="#000000" stroke-width="0.75" />
<path d="M 807.6667 52.0 L 807.6667 84.0 Z" fill="#000000" stroke="#000000" stroke-width="0.75" />
<path d="M 665.3334 137.0 L 665.3334 187.0 Z" fill="#000000" stroke="#000000" stroke-width="0.75" />
<path d="M 807.6667 137.0 L 807.6667 187.0 Z" fill="#000000" stroke="#000000" stroke-width="0.75" />
<path d="M 807.6667 52.0 L 950.0 52.0 M 807.6667 60.0 L 950.0 60.0 M 807.6667 68.0 L 950.0 68.0 M 807.6667 76.0 L 950.0 76.0 M 807.6667 84.0 L 950.0 84.0 Z" fill="none" stroke="#d6d6d6" stroke-width="0.75" />
<path d="M 807.6667 137.0 L 950.0 137.0 M 807.6667 147.0 L 950.0 147.0 M 807.6667 157.0 L 950.0 157.0 M 807.6667 167.0 L 950.0 167.0 M 807.6667 177.0 L 950.0 177.0 M 807.6667 187.0 L 950.0 187.0 Z" fill="none" stroke="#d6d6d6" stroke-width="0.75" />
<path d="M 832.1867 61.232 C 832.1867 62.456 833.3819 63.68 834.5627 63.68 C 838.1627 63.68 841.7627 61.232 841.7627 58.856 C 841.7627 57.6752 840.5387 56.48 839.3867 56.48 C 835.7867 56.48 832.1867 58.856 832.1867 61.232 Z" fill="#404040" stroke="none" stroke-width="1.0" />
<text x='830.6667' y='150.75' font-family="Default" font-size="10.0" fill="#404040" >3</text>
<path d="M 832.1667 60.96 L 833.1667 60.96 L 833.1667 91.0 L 832.1667 91.0 M 832.1667 60.96 Z" fill="#404040" stroke="none" stroke-width="0.75" />
<path d="M 857.77 61.232 C 857.77 62.456 858.9652 63.68 860.146 63.68 C 863.74603 63.68 867.346 61.232 867.346 58.856 C 867.346 57.6752 866.122 56.48 864.97003 56.48 C 861.37 56.48 857.77 58.856 857.77 61.232 Z" fill="#404040" stroke="none" stroke-width="1.0" />
<text x='856.25' y='150.75' font-family="Default" font-size="10.0" fill="#404040" >3</text>
<path d="M 857.75 60.96 L 858.75 60.96 L 858.75 91.0 L 857.75 91.0 M 857.75 60.96 Z" fill="#404040" stroke="none" stroke-width="0.75" />
<path d="M 883.3534 65.232 C 883.3534 66.456 884.5486 67.68 885.7294 67.68 C 889.3294 67.68 892.9294 65.232 892.9294 62.856 C 892.9294 61.6752 891.7054 60.48 890.5534 60.48 C 886.95337 60.48 883.3534 62.856 883.3534 65.232 Z" fill="#404040" stroke="none" stroke-width="1.0" />
<text x='881.8334' y='150.75' font-family="Default" font-size="10.0" fill="#404040" >1</text>
<path d="M 883.3334 64.96 L 884.3334 64.96 L 884.3334 95.0 L 883.3334 95.0 M 883.3334 64.96 Z" fill="#404040" stroke="none" stroke-width="0.75" />
<path d="M 908.9367 61.232 C 908.9367 62.456 910.1319 63.68 911.3127 63.68 C 914.9127 63.68 918.5127 61.232 918.5127 58.856 C 918.5127 57.6752 917.2887 56.48 916.1367 56.48 C 912.5367 56.48 908.9367 58.856 908.9367 61.232 Z" fill="#404040" stroke="none" stroke-width="1.0" />
<text x='907.4167' y='150.75' font-family="Default" font-size="10.0" fill="#404040" >3</text>
<path d="M 908.9167 60.96 L 909.9167 60.96 L 909.9167 91.0 L 908.9167 91.0 M 908.9167 60.96 Z" fill="#404040" stroke="none" stroke-width="0.75" />
<text x='808.6667' y='50.0' font-family="Default" font-size="10.0" fill="#ff0000" >6</text>
<path d="M 807.6667 52.0 L 807.6667 84.0 Z" fill="#000000" stroke="#000000" stroke-width="0.75" />
<path d="M 950.0 52.0 L 950.0 84.0 Z" fill="#000000" stroke="#000000" stroke-width="0.75" />
<path d="M 807.6667 137.0 L 807.6667 187.0 Z" fill="#000000" stroke="#000000" stroke-width="0.75" />
<path d="M 950.0 137.0 L 950.0 187.0 Z" fill="#000000" stroke="#000000" stroke-width="0.75" />
<path d="M 20.0 249.0 L 144.0 249.0 M 20.0 257.0 L 144.0 257.0 M 20.0 265.0 L 144.0 265.0 M 20.0 273.0 L 144.0 273.0 M 20.0 281.0 L 144.0 281.0 Z" fill="none" stroke="#d6d6d6" stroke-width="0.75" />
<path d="M 20.0 334.0 L 144.0 334.0 M 20.0 344.0 L 144.0 344.0 M 20.0 354.0 L 144.0 354.0 M 20.0 364.0 L 144.0 364.0 M 20.0 374.0 L 144.0 374.0 M 20.0 384.0 L 144.0 384.0 Z" fill="none" stroke="#d6d6d6" stroke-width="0.75" />
<path d="M 44.52 270.23203 C 44.52 271.45602 45.715202 272.68002 46.896 272.68002 C 50.496002 272.68002 54.096 270.23203 54.096 267.85602 C 54.096 266.6752 52.872 265.48 51.72 265.48 C 48.12 265.48 44.52 267.85602 44.52 270.23203 Z" fill="#404040" stroke="none" stroke-width="1.0" />
<text x='43.0' y='357.75' font-family="Default" font-size="10.0" fill="#404040" >2</text>
<path d="M 44.5 269.96 L 45.5 269.96 L 45.5 300.0 L 44.5 300.0 M 44.5 269.96 Z" fill="#404040" stroke="none" stroke-width="0.75" />
<path d="M 65.52 258.232 C 65.52 259.456 66.715195 260.68 67.895996 260.68 C 71.495995 260.68 75.09599 258.232 75.09599 255.856 C 75.09599 254.6752 73.871994 253.48 72.71999 253.48 C 69.119995 253.48 65.52 255.856 65.52 258.232 Z" fill="#404040" stroke="none" stroke-width="1.0" />
<text x='64.0' y='347.75' font-family="Default" font-size="10.0" fill="#404040" >3</text>
<path d="M 65.5 257.96 L 66.5 257.96 L 66.5 288.0 L 65.5 288.0 M 65.5 257.96 Z" fill="#404040" stroke="none" stroke-width="0.75" />
<path d="M 86.52 278.23203 C 86.52 279.45602 87.715195 280.68002 88.895996 280.68002 C 92.495995 280.68002 96.09599 278.23203 96.09599 275.85602 C 96.09599 274.6752 94.871994 273.48 93.71999 273.48 C 90.119995 273.48 86.52 275.85602 86.52 278.23203 Z" fill="#404040" stroke="none" stroke-width="1.0" />
<text x='85.0' y='367.75' font-family="Default" font-size="10.0" fill="#404040" >4</text>
<path d="M 95.18 276.04 L 96.18 276.04 L 96.18 245.0 L 95.18 245.0 M 95.18 276.04 Z" fill="#404040" stroke="none" stroke-width="0.75" />
<path d="M 107.52 258.232 C 107.52 259.456 108.715195 260.68 109.895996 260.68 C 113.495995 260.68 117.09599 258.232 117.09599 255.856 C 117.09599 254.6752 115.871994 253.48 114.71999 253.48 C 111.119995 253.48 107.52 255.856 107.52 258.232 Z" fill="#404040" stroke="none" stroke-width="1.0" />
<text x='106.0' y='347.75' font-family="Default" font-size="10.0" fill="#404040" >3</text>
<path d="M 107.5 257.96 L 108.5 257.96 L 108.5 288.0 L 107.5 288.0 M 107.5 257.96 Z" fill="#404040" stroke="none" stroke-width="0.75" />
<text x='21.0' y='247.0' font-family="Default" font-size="10.0" fill="#ff0000" >7</text>
<path d="M 20.0 249.0 L 20.0 334.0 Z" fill="#000000" stroke="#000000" stroke-width="0.75" />
<path d="M 144.0 249.0 L 144.0 281.0 Z" fill="#000000" stroke="#000000" stroke-width="0.75" />
<path d="M 20.0 334.0 L 20.0 384.0 Z" fill="#000000" stroke="#000000" stroke-width="0.75" />
<path d="M 144.0 334.0 L 144.0 384.0 Z" fill="#000000" stroke="#000000" stroke-width="0.75" />
<path d="M 144.0 249.0 L 268.0 249.0 M 144.0 257.0 L 268.0 257.0 M 144.0 265.0 L 268.0 265.0 M 144.0 273.0 L 268.0 273.0 M 144.0 281.0 L 268.0 281.0 Z" fill="none" stroke="#d6d6d6" stroke-width="0.75" />
<path d="M 144.0 334.0 L 268.0 334.0 M 144.0 344.0 L 268.0 344.0 M 144.0 354.0 L 268.0 354.0 M 144.0 364.0 L 268.0 364.0 M 144.0 374.0 L 268.0 374.0 M 144.0 384.0 L 268.0 384.0 Z" fill="none" stroke="#d6d6d6" stroke-width="0.75" />
<path d="M 168.52 286.23203 C 168.52 287.45602 169.71521 288.68002 170.89601 288.68002 C 174.496 288.68002 178.09601 286.23203 178.09601 283.85602 C 178.09601 282.6752 176.87201 281.48 175.72 281.48 C 172.12001 281.48 168.52 283.85602 168.52 286.23203 Z" fill="#404040" stroke="none" stroke-width="1.0" />
<text x='167.0' y='367.75' font-family="Default" font-size="10.0" fill="#404040" >0</text>
<path d="M 177.18 284.04 L 178.18 284.04 L 178.18 253.0 L 177.18 253.0 M 177.18 284.04 Z" fill="#404040" stroke="none" stroke-width="0.75" />
<path d="M 189.52 258.232 C 189.52 259.456 190.71521 260.68 191.89601 260.68 C 195.496 260.68 199.09601 258.232 199.09601 255.856 C 199.09601 254.6752 197.87201 253.48 196.72 253.48 C 193.12001 253.48 189.52 255.856 189.52 258.232 Z" fill="#404040" stroke="none" stroke-width="1.0" />
<text x='188.0' y='347.75' font-family="Default" font-size="10.0" fill="#404040" >3</text>
<path d="M 189.5 257.96 L 190.5 257.96 L 190.5 288.0 L 189.5 288.0 M 189.5 257.96 Z" fill="#404040" stroke="none" stroke-width="0.75" />
<path d="M 210.52 246.232 C 210.52 247.456 211.71521 248.68 212.89601 248.68 C 216.496 248.68 220.09601 246.232 220.09601 243.856 C 220.09601 242.6752 218.87201 241.48 217.72 241.48 C 214.12001 241.48 210.52 243.856 210.52 246.232 Z" fill="#404040" stroke="none" stroke-width="1.0" />
<text x='209.0' y='337.75' font-family="Default" font-size="10.0" fill="#404040" >3</text>
<path d="M 210.5 245.96 L 211.5 245.96 L 211.5 276.0 L 210.5 276.0 M 210.5 245.96 Z" fill="#404040" stroke="none" stroke-width="0.75" />
<path d="M 231.52 246.232 C 231.52 247.456 232.71521 248.68 233.89601 248.68 C 237.496 248.68 241.09601 246.232 241.09601 243.856 C 241.09601 242.6752 239.87201 241.48 238.72 241.48 C 235.12001 241.48 231.52 243.856 231.52 246.232 Z" fill="#404040" stroke="none" stroke-width="1.0" />
<text x='230.0' y='337.75' font-family="Default" font-size="10.0" fill="#404040" >3</text>
<path d="M 231.5 245.96 L 232.5 245.96 L 232.5 276.0 L 231.5 276.0 M 231.5 245.96 Z" fill="#404040" stroke="none" stroke-width="0.75" />
<text x='145.0' y='247.0' font-family="Default" font-size="10.0" fill="#ff0000" >8</text>
<path d="M 144.0 249.0 L 144.0 281.0 Z" fill="#000000" stroke="#000000" stroke-width="0.75" />
<path d="M 268.0 249.0 L 268.0 281.0 Z" fill="#000000" stroke="#000000" stroke-width="0.75" />
<path d="M 144.0 334.0 L 144.0 384.0 Z" fill="#000000" stroke="#000000" stroke-width="0.75" />
<path d="M 268.0 334.0 L 268.0 384.0 Z" fill="#000000" stroke="#000000" stroke-width="0.75" />
<path d="M 268.0 249.0 L 392.0 249.0 M 268.0 257.0 L 392.0 257.0 M 268.0 265.0 L 392.0 265.0 M 268.0 273.0 L 392.0 273.0 M 268.0 281.0 L 392.0 281.0 Z" fill="none" stroke="#d6d6d6" stroke-width="0.75" />
<path d="M 268.0 334.0 L 392.0 334.0 M 268.0 344.0 L 392.0 344.0 M 268.0 354.0 L 392.0 354.0 M 268.0 364.0 L 392.0 364.0 M 268.0 374.0 L 392.0 374.0 M 268.0 384.0 L 392.0 384.0 Z" fill="none" stroke="#d6d6d6" stroke-width="0.75" />
<path d="M 292.52 258.232 C 292.52 259.456 293.71518 260.68 294.896 260.68 C 298.496 260.68 302.09598 258.232 302.09598 255.856 C 302.09598 254.6752 300.87198 253.48 299.72 253.48 C 296.12 253.48 292.52 255.856 292.52 258.232 Z" fill="#404040" stroke="none" stroke-width="1.0" />
<text x='291.0' y='347.75' font-family="Default" font-size="10.0" fill="#404040" >3</text>
<path d="M 292.5 257.96 L 293.5 257.96 L 293.5 288.0 L 292.5 288.0 M 292.5 257.96 Z" fill="#404040" stroke="none" stroke-width="0.75" />
<path d="M 313.52 246.232 C 313.52 247.456 314.71518 248.68 315.896 248.68 C 319.496 248.68 323.09598 246.232 323.09598 243.856 C 323.09598 242.6752 321.87198 241.48 320.72 241.48 C 317.12 241.48 313.52 243.856 313.52 246.232 Z" fill="#404040" stroke="none" stroke-width="1.0" />
<text x='312.0' y='337.75' font-family="Default" font-size="10.0" fill="#404040" >3</text>
<path d="M 313.5 245.96 L 314.5 245.96 L 314.5 276.0 L 313.5 276.0 M 313.5 245.96 Z" fill="#404040" stroke="none" stroke-width="0.75" />
<path d="M 334.52 266.23203 C 334.52 267.45602 335.71518 268.68002 336.896 268.68002 C 340.496 268.68002 344.09598 266.23203 344.09598 263.85602 C 344.09598 262.6752 342.87198 261.48 341.72 261.48 C 338.12 261.48 334.52 263.85602 334.52 266.23203 Z" fill="#404040" stroke="none" stroke-width="1.0" />
<text x='333.0' y='357.75' font-family="Default" font-size="10.0" fill="#404040" >4</text>
<path d="M 334.5 265.96 L 335.5 265.96 L 335.5 296.0 L 334.5 296.0 M 334.5 265.96 Z" fill="#404040" stroke="none" stroke-width="0.75" />
<path d="M 355.52 246.232 C 355.52 247.456 356.71518 248.68 357.896 248.68 C 361.496 248.68 365.09598 246.232 365.09598 243.856 C 365.09598 242.6752 363.87198 241.48 362.72 241.48 C 359.12 241.48 355.52 243.856 355.52 246.232 Z" fill="#404040" stroke="none" stroke-width="1.0" />
<text x='354.0' y='337.75' font-family="Default" font-size="10.0" fill="#404040" >3</text>
<path d="M 355.5 245.96 L 356.5 245.96 L 356.5 276.0 L 355.5 276.0 M 355.5 245.96 Z" fill="#404040" stroke="none" stroke-width="0.75" />
<text x='269.0' y='247.0' font-family="Default" font-size="10.0" fill="#ff0000" >9</text>
<path d="M 268.0 249.0 L 268.0 281.0 Z" fill="#000000" stroke="#000000" stroke-width="0.75" />
<path d="M 392.0 249.0 L 392.0 281.0 Z" fill="#000000" stroke="#000000" stroke-width="0.75" />
<path d="M 268.0 334.0 L 268.0 384.0 Z" fill="#000000" stroke="#000000" stroke-width="0.75" />
<path d="M 392.0 334.0 L 392.0 384.0 Z" fill="#000000" stroke="#000000" stroke-width="0.75" />
<path d="M 392.0 249.0 L 462.0 249.0 M 392.0 257.0 L 462.0 257.0 M 392.0 265.0 L 462.0 265.0 M 392.0 273.0 L 462.0 273.0 M 392.0 281.0 L 462.0 281.0 Z" fill="none" stroke="#d6d6d6" stroke-width="0.75" />
<path d="M 392.0 334.0 L 462.0 334.0 M 392.0 344.0 L 462.0 344.0 M 392.0 354.0 L 462.0 354.0 M 392.0 364.0 L 462.0 364.0 M 392.0 374.0 L 462.0 374.0 M 392.0 384.0 L 462.0 384.0 Z" fill="none" stroke="#d6d6d6" stroke-width="0.75" />
<path d="M 417.0 246.024 C 417.0 247.112 418.0624 248.2 419.112 248.2 C 422.312 248.2 425.512 246.024 425.512 243.912 C 425.512 242.8624 424.424 241.8 423.4 241.8 C 420.2 241.8 417.0 243.912 417.0 246.024 Z" fill="none" stroke="#404040" stroke-width="1.0" />
<text x='415.0' y='337.75' font-family="Default" font-size="10.0" fill="#404040" >3</text>
<path d="M 417.0 274.024 C 417.0 275.112 418.0624 276.19998 419.112 276.19998 C 422.312 276.19998 425.512 274.024 425.512 271.912 C 425.512 270.8624 424.424 269.8 423.4 269.8 C 420.2 269.8 417.0 271.912 417.0 274.024 Z" fill="none" stroke="#404040" stroke-width="1.0" />
<text x='415.0' y='357.75' font-family="Default" font-size="10.0" fill="#404040" >0</text>
<text x='393.0' y='247.0' font-family="Default" font-size="10.0" fill="#ff0000" >10</text>
<path d="M 392.0 249.0 L 392.0 281.0 Z" fill="#000000" stroke="#000000" stroke-width="0.75" />
<path d="M 456.0 249.0 L 457.0 249.0 L 457.0 281.0 L 456.0 281.0 L 456.0 249.0 Z" fill="#000000" stroke="#000000" stroke-width="0.75" />
<path d="M 459.0 249.0 L 462.0 249.0 L 462.0 281.0 L 459.0 281.0 L 459.0 249.0 Z" fill="#000000" stroke="#000000" stroke-width="0.75" />
<path d="M 392.0 334.0 L 392.0 384.0 Z" fill="#000000" stroke="#000000" stroke-width="0.75" />
<path d="M 456.0 334.0 L 457.0 334.0 L 457.0 384.0 L 456.0 384.0 L 456.0 334.0 Z" fill="#000000" stroke="#000000" stroke-width="0.75" />
<path d="M 459.0 334.0 L 462.0 334.0 L 462.0 384.0 L 459.0 384.0 L 459.0 334.0 Z" fill="#000000" stroke="#000000" stroke-width="0.75" />
<path d="M 464.0 249.0 L 930.0 249.0 M 464.0 257.0 L 930.0 257.0 M 464.0 265.0 L 930.0 265.0 M 464.0 273.0 L 930.0 273.0 M 464.0 281.0 L 930.0 281.0 Z" fill="none" stroke="#d6d6d6" stroke-width="0.75" />
<path d="M 464.0 334.0 L 930.0 334.0 M 464.0 344.0 L 930.0 344.0 M 464.0 354.0 L 930.0 354.0 M 464.0 364.0 L 930.0 364.0 M 464.0 374.0 L 930.0 374.0 M 464.0 384.0 L 930.0 384.0 Z" fill="none" stroke="#d6d6d6" stroke-width="0.75" />
</svg>